<?xml version="1.0" encoding="UTF-8" standalone="no"?>
<svg width="600px" height="600px" viewBox="0 0 600 600" version="1.1" xmlns="http://www.w3.org/2000/svg" xmlns:xlink="http://www.w3.org/1999/xlink">
    <!-- Generator: Sketch 46.2 (44496) - http://www.bohemiancoding.com/sketch -->
    <title>Cumulus_General_Logo</title>
    <desc>Created with Sketch.</desc>
    <defs></defs>
    <g id="Page-1" stroke="none" stroke-width="1" fill="none" fill-rule="evenodd">
        <g id="Cumulus_General_Logo" fill="#000000">
            <g id="icon" transform="translate(11.000000, 84.000000)">
                <path d="M265.465112,24.368984 C192.32721,24.368984 132.837858,83.9746484 132.837858,157.201705 C132.837858,163.022193 128.810812,170.315917 123.071669,171.378579 C65.849037,181.860288 24.3246493,231.757088 24.3246493,290.034425 C24.3246493,356.619845 78.4124551,410.791444 144.894881,410.791444 L410.14939,410.791444 C489.942769,410.791444 554.833667,345.800016 554.833667,265.883021 C554.833667,185.966026 489.942769,120.974599 410.14939,120.974599 C408.557863,120.974599 407.014564,121.095356 405.447151,121.191962 L402.529351,121.385173 C397.055463,121.892352 392.280881,118.366247 390.520556,113.318604 C371.904512,60.1130615 321.626726,24.368984 265.465112,24.368984 M409.416667,434 L144.5,434 C64.80825,434 0,369.117 0,289.333333 C0,222.883111 45.084,165.522778 108.543583,149.296 C112.421,66.3055556 181.082583,0 264.916667,0 C328.183583,0 385.116583,38.409 409.29625,96.4444444 L409.416667,96.4444444 C502.378333,96.4444444 578,172.177444 578,265.222222 C578,358.267 502.378333,434 409.416667,434" id="cloud"></path>
            </g>
            <g id="noun_603163" transform="translate(305.860928, 379.711291) rotate(82.000000) translate(-305.860928, -379.711291) translate(189.360928, 240.711291)" fill-rule="nonzero">
                <path d="M76.1255745,0 L85.1252585,20.7134872 L40.7923716,42.4990218 C126.433268,65.5448502 175.032161,110.136917 201.362682,154.639646 C229.321061,201.745919 232.630738,247.745048 232.651723,267.488588 C232.651723,273.707101 232.315959,277.353976 232.282982,277.692182 L210.946956,275.378984 L210.946956,275.372603 C210.946956,275.372603 210.952952,275.347078 210.976935,275.037588 C211.045887,274.1155 211.207773,271.486431 211.207773,267.485397 C211.22576,250.428357 208.209877,208.77804 183.243398,166.843757 C159.575009,127.20991 116.555201,86.4497744 35.0454049,64.5206621 L54.8075357,111.049433 L35.2612534,120.452182 L0,37.4195591 L76.1255745,0 Z" id="line-3"></path>
            </g>
            <g id="noun_603163" transform="translate(425.975166, 429.040800) rotate(82.000000) translate(-425.975166, -429.040800) translate(353.975166, 324.540800)" fill-rule="nonzero">
                <path d="M46.8650318,0 L52.4054888,15.5664027 L25.1129243,31.9384602 C77.8358544,49.2576418 107.754691,82.7690472 123.964496,116.213315 C141.176456,151.614173 143.213986,186.183 143.226905,201.020477 C143.226905,205.693755 143.020199,208.43442 142.999897,208.688585 L129.864843,206.950192 L129.864843,206.945397 C129.864843,206.945397 129.868534,206.926215 129.883299,206.69363 C129.925748,206.000671 130.025409,204.024898 130.025409,201.018079 C130.036483,188.199535 128.179821,156.898885 112.809759,125.384832 C98.2388366,95.5995803 71.7546399,64.9679114 21.5749309,48.4879537 L33.7410511,83.4548129 L21.7078133,90.5210774 L0,28.1211908 L46.8650318,0 Z" id="line-2"></path>
            </g>
            <g id="noun_603163" transform="translate(200.377049, 302.099851) rotate(82.000000) translate(-200.377049, -302.099851) translate(42.377049, 133.599851)" fill-rule="nonzero">
                <path d="M103.27775,0 L115.487407,25.0724065 L55.3420371,51.4424607 C171.528998,79.3380232 237.461956,133.313986 273.183945,187.181812 C311.11441,244.201068 315.604571,299.880194 315.633041,323.778538 C315.633041,331.305667 315.177517,335.719987 315.132778,336.129363 L286.186701,333.32938 L286.186701,333.321656 C286.186701,333.321656 286.194835,333.290759 286.227372,332.916141 C286.320918,331.800009 286.540545,328.617683 286.540545,323.774676 C286.564948,303.128175 282.473371,252.713019 248.601946,201.954141 C216.491607,153.979798 158.127659,104.642153 47.5452644,78.0983063 L74.3560757,134.418532 L47.838101,145.799983 L0,45.2940825 L103.27775,0 Z" id="line-1"></path>
            </g>
        </g>
    </g>
</svg>
